<svg width="543" height="407" viewBox="0 0 543 407" fill="none" xmlns="http://www.w3.org/2000/svg">
<g clip-path="url(#clip0_136_129524)">
<g clip-path="url(#clip1_136_129524)">
<path d="M505.819 374.152L497.452 258.759L517.573 168.204L410.365 168.25L392.162 258.971L497.452 258.759" fill="white"/>
<path d="M505.817 375.486C505.85 375.486 505.882 375.486 505.915 375.482C506.09 375.47 506.26 375.423 506.416 375.344C506.573 375.265 506.712 375.157 506.827 375.024C506.941 374.892 507.028 374.738 507.083 374.571C507.138 374.405 507.16 374.23 507.147 374.055L498.792 258.858L518.872 168.494C518.916 168.299 518.915 168.097 518.869 167.902C518.824 167.708 518.736 167.526 518.611 167.37C518.486 167.214 518.328 167.088 518.148 167.002C517.969 166.915 517.772 166.87 517.572 166.87V166.87L410.363 166.915C410.056 166.915 409.758 167.022 409.52 167.217C409.282 167.412 409.119 167.684 409.058 167.986L390.855 258.708C390.816 258.902 390.821 259.101 390.869 259.293C390.916 259.485 391.006 259.663 391.131 259.816C391.256 259.969 391.413 260.092 391.591 260.177C391.769 260.261 391.964 260.305 392.161 260.305H392.164L496.213 260.096L504.491 374.25C504.515 374.585 504.666 374.899 504.912 375.128C505.158 375.358 505.481 375.485 505.817 375.486ZM496.383 257.427L393.788 257.633L411.455 169.583L515.911 169.539L496.383 257.427Z" fill="#222433"/>
<path d="M384.636 376.475C384.669 376.475 384.702 376.475 384.735 376.472C384.91 376.459 385.08 376.412 385.236 376.333C385.393 376.254 385.532 376.146 385.646 376.013C385.76 375.88 385.848 375.726 385.902 375.56C385.957 375.394 385.979 375.218 385.966 375.043L377.486 259.551C377.46 259.198 377.296 258.87 377.028 258.639C376.761 258.407 376.413 258.292 376.06 258.318C375.708 258.344 375.38 258.509 375.15 258.777C374.919 259.045 374.804 259.393 374.829 259.746L383.309 375.239C383.334 375.574 383.484 375.889 383.73 376.118C383.977 376.347 384.3 376.475 384.636 376.475Z" fill="#222433"/>
<path d="M313.559 376.475C313.895 376.475 314.219 376.347 314.465 376.118C314.711 375.889 314.861 375.575 314.886 375.239L323.252 261.188L420.22 260.321L393.086 374.734C393.004 375.078 393.063 375.441 393.248 375.742C393.433 376.043 393.73 376.259 394.074 376.34C394.418 376.422 394.78 376.364 395.081 376.178C395.381 375.993 395.596 375.695 395.678 375.351L423.204 259.28C423.251 259.083 423.253 258.878 423.209 258.68C423.165 258.483 423.076 258.297 422.95 258.139C422.824 257.981 422.664 257.853 422.481 257.766C422.299 257.679 422.099 257.635 421.896 257.637L322.446 258.526H322.014C321.678 258.526 321.354 258.653 321.107 258.883C320.861 259.112 320.71 259.427 320.686 259.763L312.229 375.042C312.216 375.217 312.238 375.393 312.293 375.559C312.348 375.725 312.435 375.879 312.549 376.012C312.663 376.145 312.803 376.253 312.959 376.332C313.115 376.411 313.285 376.458 313.46 376.471C313.493 376.474 313.526 376.475 313.559 376.475Z" fill="#222433"/>
</g>
<g clip-path="url(#clip2_136_129524)">
<path d="M272.462 221.247L438.534 226.351L451.179 218.696C454.293 215.844 456.047 208.146 456.238 204.661C459.61 142.993 458.767 133.637 447.814 125.131C446.634 124.534 443.39 122.422 437.692 121.729C422.489 119.88 393.381 119.967 366.251 124.344C362.356 124.973 348.423 144.708 337.796 157.454C332.469 163.842 327.086 165.575 325.994 168.086L315.034 175.316L272.041 177.442L263.19 179.143L259.396 186.798L272.462 221.247Z" fill="white"/>
<path d="M374.887 67.716L372.128 60.9584L376.573 47.3018L408.608 47.7272L409.45 71.1183L416.194 83.0266L420.389 86.7111L420.41 122.154L417.037 125.131L368.268 83.0095L374.887 67.716Z" fill="white"/>
<path d="M273.627 177.971C272.966 177.971 272.422 177.442 272.406 176.775C272.39 176.099 272.924 175.538 273.599 175.522C274.014 175.512 275.975 175.394 278.688 175.231C301.583 173.854 312.05 173.453 315.122 173.868L335.988 157.961C337.637 155.296 353.181 130.431 362.268 124.994C362.728 124.719 363.266 124.424 363.865 124.118C368.886 121.555 374.592 120.2 380.366 120.2H387.262C387.937 120.2 388.484 120.748 388.484 121.425C388.484 122.101 387.937 122.649 387.262 122.649H380.366C374.976 122.649 369.653 123.912 364.974 126.301C364.423 126.582 363.934 126.85 363.521 127.097C354.632 132.416 338.115 159.171 337.949 159.441C337.87 159.569 337.768 159.682 337.649 159.773L316.167 176.149C315.822 176.412 315.365 176.472 314.965 176.308C312.737 175.636 287.221 177.172 278.835 177.676C275.994 177.847 274.117 177.96 273.657 177.971C273.647 177.971 273.637 177.971 273.627 177.971Z" fill="#222433"/>
<path d="M404.728 150.353C404.711 150.353 404.694 150.353 404.677 150.353C389.76 150.326 377.405 137.897 377.136 122.647C377.124 121.971 377.661 121.413 378.336 121.401C379.009 121.385 379.567 121.928 379.58 122.604C379.825 136.53 391.085 147.879 404.682 147.903C411.414 147.913 417.718 145.287 422.477 140.503C427.237 135.717 429.866 129.346 429.878 122.563C429.878 122.212 429.867 121.853 429.846 121.498C429.806 120.823 430.32 120.243 430.994 120.203C431.672 120.162 432.246 120.678 432.286 121.353C432.31 121.755 432.322 122.164 432.322 122.565C432.309 130.001 429.427 136.985 424.207 142.233C418.997 147.47 412.081 150.353 404.728 150.353Z" fill="#222433"/>
<path d="M420.769 124.479C420.781 133.616 413.573 141.099 404.52 141.346C395.3 141.608 387.616 134.279 387.357 124.977C387.357 124.97 387.356 124.962 387.356 124.955L387.293 122.565L387.04 113.193C375.793 110.121 367.521 99.7505 367.533 87.4315C367.54 80.7298 370.002 74.6123 374.052 69.9316C373.274 67.9926 372.708 65.9312 372.397 63.768C372.397 63.7652 372.397 63.7623 372.396 63.7594C371.585 58.2997 372.476 52.9784 374.668 48.3447" fill="white"/>
<path d="M404.036 142.577C399.441 142.577 395.09 140.834 391.736 137.635C388.259 134.318 386.27 129.835 386.135 125.01L385.843 114.119C374.286 110.546 366.299 99.7009 366.311 87.4297C366.317 80.9492 368.563 74.6815 372.651 69.6954C371.961 67.834 371.469 65.902 371.187 63.9418C370.366 58.4151 371.187 52.8407 373.563 47.8191C373.853 47.2079 374.581 46.9474 375.19 47.2368C375.8 47.5267 376.06 48.2572 375.771 48.8684C373.604 53.4494 372.855 58.536 373.604 63.578C373.895 65.6035 374.426 67.5821 375.185 69.4737C375.356 69.9 375.275 70.3863 374.975 70.7333C370.97 75.3617 368.761 81.2922 368.755 87.4317C368.744 98.908 376.395 109.015 387.361 112.011C387.881 112.153 388.247 112.619 388.261 113.159L388.577 124.922C388.694 129.115 390.414 132.992 393.42 135.859C396.424 138.725 400.356 140.238 404.485 140.121C412.943 139.89 419.558 133.02 419.547 124.479C419.546 123.803 420.092 123.254 420.767 123.253C420.767 123.253 420.768 123.253 420.769 123.253C421.443 123.253 421.99 123.8 421.991 124.476C422.004 134.355 414.344 142.303 404.552 142.569C404.381 142.575 404.208 142.577 404.036 142.577Z" fill="#222433"/>
<path d="M416.624 84.5178C412.666 82.5209 410.079 79.2896 410.079 71.321C410.079 70.6828 407.692 70.6501 407.692 70.6501L400.421 84.2831C393.074 76.6835 384.616 77.3245 379.956 77.6793C372.318 78.2603 366.871 84.3296 366.643 84.5877C366.458 84.7975 366.346 85.0633 366.325 85.3442C366.278 85.9942 366.253 86.652 366.251 87.2999C366.224 94.7656 369.081 101.795 374.295 107.093C379.508 112.391 386.455 115.323 393.854 115.35C393.888 115.35 393.92 115.35 393.954 115.35C409.182 115.35 421.599 102.876 421.654 87.4976C421.654 87.4976 418.14 85.2826 416.624 84.5178Z" fill="#000091"/>
<path d="M426.167 58.3877C425.773 50.5775 422.122 43.2437 416.15 38.2666C404.383 28.4586 386.902 30.1399 377.182 42.0131C375.66 43.8713 374.382 45.9242 373.381 48.1151C373.203 48.5046 373.232 48.9586 373.456 49.3228C373.681 49.6874 374.072 49.9128 374.497 49.9242L403.915 50.6857C406.177 50.7494 407.978 52.6585 407.93 54.9389L407.549 71.2245C407.549 71.2245 411.072 64.4117 412.897 62.683C419.443 56.4843 426.167 58.3877 426.167 58.3877Z" fill="#000091"/>
<path d="M394.416 70.4452C395.955 70.4452 397.202 69.1866 397.202 67.6341C397.202 66.0816 395.955 64.823 394.416 64.823C392.878 64.823 391.63 66.0816 391.63 67.6341C391.63 69.1866 392.878 70.4452 394.416 70.4452Z" fill="#222433"/>
<path d="M374.968 70.3597C376.507 70.3597 377.754 69.1012 377.754 67.5487C377.754 65.9961 376.507 64.7375 374.968 64.7375C373.429 64.7375 372.182 65.9961 372.182 67.5487C372.182 69.1012 373.429 70.3597 374.968 70.3597Z" fill="#222433"/>
<path d="M408.813 71.2545C409.642 63.9902 415.758 58.3496 423.179 58.3496C431.166 58.3496 437.641 64.8827 437.641 72.9416C437.641 81.0005 431.166 87.5336 423.179 87.5336C420.573 87.5336 418.129 86.8383 416.017 85.6212" fill="white"/>
<path d="M423.179 88.7582C420.451 88.7582 417.764 88.0404 415.408 86.6828C414.823 86.3456 414.621 85.5968 414.958 85.0105C415.294 84.4242 416.042 84.2216 416.626 84.5589C418.612 85.7033 420.878 86.308 423.18 86.308C430.48 86.308 436.42 80.3114 436.42 72.9409C436.42 65.5704 430.48 59.5738 423.18 59.5738C416.45 59.5738 410.796 64.655 410.027 71.3931C409.951 72.0655 409.346 72.5473 408.675 72.471C408.004 72.3942 407.523 71.7871 407.599 71.1146C408.509 63.1386 415.208 57.124 423.18 57.124C431.827 57.124 438.863 64.2193 438.863 72.9409C438.863 81.6629 431.827 88.7582 423.179 88.7582Z" fill="#222433"/>
<path d="M383.257 90.2287C381.402 90.2287 379.701 89.5987 378.468 88.4542C377.064 87.1518 376.322 85.2609 376.322 82.9867C376.322 82.3102 376.869 81.7619 377.544 81.7619C378.219 81.7619 378.766 82.3102 378.766 82.9867C378.766 84.5832 379.224 85.8179 380.128 86.6565C380.908 87.3804 382.019 87.7789 383.257 87.7789C386.018 87.7789 388.874 85.8272 388.874 82.5613C388.874 81.8848 389.421 81.3364 390.096 81.3364C390.771 81.3364 391.318 81.8848 391.318 82.5613C391.318 87.3608 387.219 90.2287 383.257 90.2287Z" fill="#222433"/>
<path d="M380.077 76.9604C379.728 76.9604 379.395 76.811 379.162 76.5476C378.914 76.2663 378.808 75.8862 378.875 75.5167L381.037 63.5745C381.158 62.9086 381.797 62.468 382.458 62.5881C383.122 62.7089 383.562 63.3463 383.442 64.0122L381.557 74.4221L387.488 74.075C388.17 74.035 388.739 74.5511 388.779 75.2264C388.818 75.9017 388.304 76.4811 387.63 76.5207L380.149 76.9588C380.124 76.9596 380.101 76.9604 380.077 76.9604Z" fill="#222433"/>
<path d="M274.49 328.073C267.649 337.444 258.147 345.38 249.778 347.567C238.578 350.494 227.701 361.302 228.421 373.216H301.393L322.35 326.985L318.069 318.913L274.49 328.073Z" fill="#F9CFD2"/>
<path d="M317.624 321.328L272.881 330.287L224.602 243.366C222.616 240.04 221.19 236.598 220.319 233.14C217.213 220.802 222.778 208.259 233.128 201.929C236.423 199.914 240.241 198.938 244.095 198.955L265.704 199.052" fill="white"/>
<path d="M272.88 331.512C272.443 331.512 272.031 331.277 271.813 330.883L223.534 243.961C221.532 240.608 220.045 237.056 219.134 233.439C217.563 227.198 218.053 220.755 220.551 214.806C222.963 209.062 227.204 204.117 232.491 200.884C235.866 198.82 239.841 197.73 243.993 197.73C244.029 197.73 244.064 197.73 244.1 197.73L265.709 197.828C266.384 197.83 266.929 198.382 266.926 199.058C266.922 199.732 266.376 200.277 265.704 200.277C265.702 200.277 265.7 200.277 265.698 200.277L244.088 200.18C244.057 200.18 244.025 200.18 243.993 200.18C240.29 200.18 236.755 201.145 233.764 202.975C223.512 209.245 218.584 221.246 221.503 232.84C222.356 236.226 223.751 239.556 225.65 242.737L273.514 328.911L317.384 320.127C318.046 319.995 318.69 320.426 318.822 321.089C318.954 321.752 318.525 322.397 317.863 322.53L273.119 331.489C273.04 331.505 272.96 331.512 272.88 331.512Z" fill="#222433"/>
<path d="M320.584 328.523C313.862 338.116 304.05 346.427 295.462 348.634C284.543 351.438 277.12 361.797 277.822 373.215H387.29C387.29 373.215 387.26 330.9 385.729 313.536L320.584 328.523Z" fill="#F9CFD2"/>
<path d="M325.216 186.255C324.768 186.255 324.337 186.007 324.122 185.578C323.82 184.973 324.064 184.237 324.668 183.934C327.952 182.285 331.492 181.423 335.186 181.37L409.804 179.214L409.999 157.389C410.005 156.717 410.551 156.176 411.221 156.176C411.225 156.176 411.229 156.176 411.232 156.176C411.907 156.182 412.449 156.735 412.443 157.411L412.237 180.415C412.231 181.074 411.706 181.61 411.05 181.629L335.239 183.819C331.897 183.867 328.714 184.643 325.762 186.125C325.587 186.213 325.4 186.255 325.216 186.255Z" fill="#222433"/>
<path d="M285.182 189.047C285.329 188.681 284.831 183.915 282.632 180.699C279.227 175.719 275.237 176.656 271.752 176.901" fill="white"/>
<path d="M285.181 190.272C285.029 190.272 284.874 190.243 284.724 190.182C284.168 189.957 283.868 189.369 283.985 188.801C283.997 188.122 283.473 184.095 281.625 181.391C278.962 177.496 276.022 177.758 272.912 178.034C272.549 178.066 272.191 178.098 271.837 178.123C271.16 178.17 270.58 177.662 270.533 176.987C270.486 176.312 270.993 175.727 271.666 175.679C272.005 175.656 272.349 175.625 272.696 175.594C276.025 175.298 280.17 174.93 283.64 180.006C285.918 183.338 286.714 188.515 286.314 189.506C286.122 189.983 285.665 190.272 285.181 190.272ZM283.983 188.842C283.982 188.842 283.982 188.842 283.983 188.842V188.842ZM284.049 188.587C284.049 188.588 284.048 188.588 284.048 188.589C284.048 188.588 284.049 188.588 284.049 188.587Z" fill="#222433"/>
<path d="M416.018 187.261C415.7 187.261 415.383 187.137 415.143 186.891L410.448 182.063C409.977 181.579 409.987 180.803 410.47 180.331C410.954 179.859 411.726 179.869 412.198 180.354L416.893 185.181C417.364 185.665 417.354 186.441 416.871 186.913C416.633 187.145 416.326 187.261 416.018 187.261Z" fill="#222433"/>
<path d="M273.216 218.983C271.724 226.865 273.158 235.319 277.706 242.94L321.884 329.224L372.17 317.332L390.904 312.686L374.095 275.361L366.251 259.412H380.346L402.706 259.524H407.544C420.414 259.525 432.041 253.7 439.836 244.421C443.399 240.18 445.331 234.785 445.331 229.225V223.549" fill="white"/>
<path d="M321.884 330.449C321.433 330.449 321.009 330.199 320.797 329.783L276.637 243.535C272.08 235.88 270.438 227.081 272.016 218.755C272.142 218.09 272.781 217.653 273.444 217.78C274.108 217.906 274.543 218.547 274.417 219.211C272.949 226.96 274.49 235.164 278.755 242.311C278.768 242.334 278.781 242.357 278.793 242.381L322.534 327.811L371.89 316.14L389.188 311.85L372.99 275.885L365.156 259.953C364.969 259.574 364.991 259.125 365.214 258.765C365.437 258.406 365.829 258.187 366.252 258.187H380.347L402.713 258.299H407.545C419.642 258.3 431.071 252.954 438.901 243.632C442.26 239.635 444.109 234.518 444.109 229.225V223.549C444.109 222.873 444.656 222.324 445.331 222.324C446.006 222.324 446.553 222.873 446.553 223.549V229.225C446.553 235.094 444.5 240.771 440.771 245.21C432.476 255.085 420.365 260.749 407.547 260.749C407.546 260.749 407.547 260.749 407.545 260.749H402.706L380.34 260.636H368.216L375.191 274.82C375.197 274.832 375.203 274.845 375.209 274.857L392.018 312.182C392.167 312.513 392.163 312.894 392.004 313.221C391.845 313.548 391.55 313.788 391.198 313.875L372.463 318.522L322.165 330.416C322.071 330.438 321.976 330.449 321.884 330.449Z" fill="#222433"/>
<path d="M335.511 230.605C329.594 230.605 323.889 228.44 319.427 224.486C318.922 224.038 318.875 223.264 319.321 222.757C319.768 222.25 320.54 222.203 321.046 222.65C325.059 226.207 330.191 228.155 335.528 228.155C335.632 228.155 335.736 228.154 335.84 228.153H336.532L434.639 225.291C446.493 224.948 455.862 215.303 455.969 203.334L456.39 143.91C456.393 143.654 456.391 143.401 456.385 143.149C456.11 131.658 446.451 122.31 434.853 122.31H421.519C420.844 122.31 420.297 121.762 420.297 121.085C420.297 120.408 420.844 119.86 421.519 119.86H434.853C447.767 119.86 458.521 130.281 458.828 143.09C458.835 143.369 458.836 143.649 458.834 143.93L458.413 203.354C458.294 216.648 447.882 227.358 434.71 227.74L336.567 230.602L335.857 230.602C335.742 230.604 335.626 230.605 335.511 230.605Z" fill="#222433"/>
<path d="M420.768 125.703C420.099 125.703 419.554 125.163 419.546 124.491L419.167 87.4949C419.16 86.8183 419.702 86.2643 420.376 86.2573C420.381 86.2573 420.385 86.2573 420.389 86.2573C421.058 86.2573 421.603 86.7975 421.611 87.4695L421.99 124.466C421.997 125.142 421.456 125.696 420.781 125.703C420.777 125.703 420.772 125.703 420.768 125.703Z" fill="#222433"/>
<path d="M272.051 176.902C267.774 177.472 263.489 178.072 260.14 178.596C247.293 180.601 214.017 195.35 218.086 203.31C220.021 208.294 229.403 199.335 246.393 197.721" fill="white"/>
<path d="M220.357 206.025C218.7 206.025 217.563 205.283 216.97 203.811C216.5 202.858 216.176 201.314 217.206 199.29C221.639 190.572 248.939 179.104 259.951 177.386C262.972 176.913 266.989 176.342 271.89 175.688C272.559 175.598 273.174 176.07 273.262 176.74C273.352 177.411 272.881 178.027 272.212 178.116C267.33 178.768 263.332 179.337 260.328 179.807C248.753 181.613 223.196 192.903 219.383 200.403C218.68 201.786 219.052 202.513 219.173 202.751C219.193 202.789 219.21 202.827 219.225 202.866C219.738 204.186 221.676 203.579 226.676 201.646C231.423 199.81 237.924 197.295 246.278 196.502C246.952 196.438 247.546 196.932 247.61 197.605C247.674 198.279 247.181 198.876 246.509 198.94C238.49 199.703 232.171 202.147 227.556 203.931C224.958 204.936 222.906 205.73 221.262 205.96C220.944 206.003 220.643 206.025 220.357 206.025Z" fill="#222433"/>
<path d="M274.503 185.026C263.561 188.098 251.956 187.931 246.215 190.274C243.011 191.581 243.032 196.242 246.249 197.518C249.823 198.936 254.492 198.893 255.314 199.005L261.503 198.707H265.296" fill="white"/>
<path d="M255.314 200.23C255.259 200.23 255.204 200.227 255.15 200.219C255.042 200.205 254.713 200.187 254.393 200.17C252.602 200.075 248.877 199.878 245.799 198.657C243.838 197.879 242.613 196.062 242.603 193.914C242.592 191.766 243.8 189.937 245.754 189.139C248.744 187.92 253.08 187.367 258.101 186.728C263.085 186.093 268.733 185.374 274.173 183.847C274.821 183.665 275.498 184.044 275.679 184.696C275.861 185.347 275.482 186.023 274.832 186.206C269.219 187.782 263.476 188.513 258.409 189.159C253.559 189.776 249.369 190.31 246.676 191.409C245.468 191.901 245.042 193.02 245.047 193.903C245.051 194.785 245.487 195.899 246.699 196.38C249.405 197.453 252.861 197.636 254.522 197.724C254.89 197.744 255.157 197.758 255.354 197.778L261.444 197.484C261.464 197.483 261.484 197.483 261.503 197.483H265.297C265.972 197.483 266.519 198.031 266.519 198.708C266.519 199.384 265.972 199.933 265.297 199.933H261.533L255.373 200.229C255.353 200.23 255.334 200.23 255.314 200.23Z" fill="#222433"/>
<path d="M353.261 201.968C357.228 216.389 343.504 232.44 328.751 226.358L328.165 226.107C321.716 223.207 314.736 221.369 306.024 226.958C299.887 230.909 291.292 237.777 287.794 231.789C285.37 227.638 295.09 219.192 302.037 212.702C289.088 216.954 272.11 222.484 269.885 216.678C267.659 210.873 275.701 206.28 292.528 200.912C273.054 203.532 267.044 207.066 265.552 201.248C264.695 197.918 268.894 194.811 275.345 192.217C278.252 191.047 281.617 189.982 285.183 189.047C296.517 186.074 309.877 184.419 317.021 184.926C317.021 184.926 318.967 185.015 325.216 185.03C327.261 185.035 329.766 185.032 332.815 185.015C345.442 184.952 351.175 194.393 353.261 201.968Z" fill="white"/>
<path d="M291.781 235.365C291.297 235.365 290.828 235.316 290.372 235.211C288.841 234.857 287.619 233.914 286.739 232.408C284.292 228.218 290.384 221.914 297.156 215.569C282.17 220.328 270.955 222.885 268.743 217.117C268.097 215.432 268.154 213.776 268.911 212.196C270.222 209.462 273.665 206.919 279.915 204.206C279.665 204.252 279.418 204.297 279.176 204.342C274.527 205.198 271.453 205.764 269.202 205.593C266.559 205.394 265.023 204.11 264.368 201.554C263.402 197.801 266.942 194.277 274.889 191.081C277.733 189.937 281.092 188.854 284.873 187.862C296.082 184.922 309.636 183.174 317.107 183.704C317.116 183.704 319.12 183.791 325.219 183.806C327.471 183.811 330.025 183.806 332.808 183.791C332.852 183.791 332.899 183.79 332.944 183.79C347.904 183.79 352.959 196.265 354.44 201.642C354.44 201.642 354.44 201.642 354.44 201.642C356.589 209.458 353.818 218.452 347.542 224.023C341.967 228.973 334.948 230.237 328.286 227.491L327.685 227.233C320.683 224.084 314.443 223.012 306.682 227.99C305.961 228.454 305.202 228.961 304.422 229.483C300.268 232.259 295.622 235.365 291.781 235.365ZM302.036 211.477C302.458 211.477 302.863 211.698 303.088 212.079C303.379 212.574 303.288 213.206 302.869 213.598C302.304 214.126 301.721 214.666 301.127 215.217C295.548 220.389 287.117 228.206 288.848 231.17C289.382 232.084 290.06 232.625 290.922 232.824C293.97 233.528 299.013 230.154 303.066 227.444C303.858 226.915 304.628 226.4 305.363 225.927C314.559 220.029 321.997 221.99 328.665 224.99L329.231 225.232C334.983 227.603 341.071 226.495 345.922 222.189C351.515 217.224 353.991 209.228 352.084 202.293C350.751 197.458 346.223 186.24 332.94 186.24C332.9 186.24 332.861 186.24 332.82 186.24C330.032 186.256 327.472 186.261 325.213 186.255C319.008 186.241 317.045 186.153 316.965 186.15C309.698 185.634 296.474 187.352 285.492 190.232C281.809 191.198 278.548 192.248 275.799 193.354C269.454 195.906 266.15 198.672 266.734 200.943C267.46 203.772 269.212 203.686 278.735 201.932C282.323 201.271 286.788 200.449 292.364 199.699C292.997 199.615 293.581 200.025 293.719 200.645C293.858 201.265 293.501 201.888 292.897 202.08C284.573 204.736 273.259 208.783 271.114 213.257C270.647 214.232 270.618 215.18 271.024 216.24C272.849 221 291.588 214.845 301.655 211.539C301.781 211.497 301.909 211.477 302.036 211.477Z" fill="#222433"/>
<path d="M427.816 77.3734C427.677 77.3734 427.537 77.3497 427.399 77.2995L418.13 73.927C417.653 73.7534 417.333 73.3023 417.325 72.7939C417.317 72.2852 417.624 71.8251 418.096 71.6372L426.77 68.1843C427.398 67.9344 428.108 68.2419 428.357 68.8706C428.606 69.4994 428.3 70.2115 427.673 70.4609L421.987 72.7241L428.233 74.9967C428.868 75.2274 429.195 75.93 428.965 76.5662C428.784 77.0639 428.316 77.3734 427.816 77.3734Z" fill="#222433"/>
<path d="M280.44 374.44C279.8 374.44 279.262 373.94 279.222 373.291C278.498 361.451 286.148 350.747 297.412 347.84C305.149 345.841 314.531 338.264 321.315 328.534C321.701 327.98 322.463 327.843 323.017 328.232C323.57 328.619 323.705 329.383 323.318 329.937C316.22 340.118 306.29 348.076 298.022 350.212C287.889 352.827 281.009 362.47 281.662 373.141C281.703 373.816 281.19 374.397 280.517 374.439C280.491 374.44 280.465 374.44 280.44 374.44Z" fill="#222433"/>
<path d="M357.607 182.921C357.53 182.921 357.453 182.913 357.375 182.898C356.712 182.77 356.279 182.128 356.406 181.464L361.464 155.095C361.591 154.431 362.228 153.996 362.895 154.124C363.557 154.251 363.991 154.893 363.864 155.558L358.806 181.926C358.693 182.513 358.181 182.921 357.607 182.921Z" fill="#222433"/>
</g>
<g clip-path="url(#clip3_136_129524)">
<path d="M198.94 265.973H176.509H66.6146L56.3871 198.739C56.3084 198.222 56.2688 197.699 56.2688 197.176C56.2701 191.453 60.9114 186.813 66.6361 186.815H155.56C160.685 186.812 165.043 190.554 165.813 195.621L175.399 258.673H198.204L198.94 265.973Z" fill="white"/>
<path d="M198.94 267.263H66.6151C65.9775 267.263 65.4349 266.797 65.3389 266.167L55.1115 198.933C55.0233 198.354 54.9785 197.762 54.9785 197.175C54.9789 194.063 56.1919 191.136 58.394 188.936C60.5952 186.736 63.5219 185.524 66.6345 185.524C66.6353 185.524 66.6358 185.524 66.6366 185.524H155.56C155.562 185.524 155.564 185.524 155.567 185.524C161.371 185.524 166.217 189.687 167.089 195.427L176.509 257.382H198.204C198.867 257.382 199.422 257.884 199.488 258.543L200.224 265.843C200.261 266.206 200.142 266.567 199.897 266.838C199.653 267.109 199.305 267.263 198.94 267.263ZM67.7243 264.682H197.513L197.037 259.964H175.4C174.762 259.964 174.22 259.498 174.124 258.867L164.537 195.815C163.858 191.347 160.085 188.105 155.566 188.105C155.564 188.105 155.563 188.105 155.561 188.105H66.6366C66.6362 188.105 66.6353 188.105 66.6349 188.105C64.2116 188.105 61.9334 189.048 60.2192 190.761C58.505 192.474 57.5606 194.752 57.5601 197.176C57.5601 197.633 57.595 198.093 57.6638 198.545L67.7243 264.682Z" fill="#222433"/>
<path d="M118.914 236.441C121.652 233.786 121.269 228.952 118.059 225.643C114.849 222.335 110.027 221.805 107.29 224.46C104.552 227.116 104.935 231.95 108.145 235.259C111.355 238.567 116.176 239.097 118.914 236.441Z" fill="#B9B9FB"/>
</g>
<g clip-path="url(#clip4_136_129524)">
<path d="M37.4727 300.543H87.3425V321.561H37.4727V300.543Z" fill="#000091"/>
<path d="M91.4413 354.452V368.398H34.3938V372.405H173.814V350.445H34.3938V354.452H91.4413Z" fill="#E1000F"/>
<path d="M34.2207 354.381H90.5952V368.472H34.2207V354.381Z" fill="white"/>
<path d="M34.2205 369.769H90.595C90.9401 369.769 91.271 369.633 91.515 369.389C91.7589 369.146 91.896 368.816 91.896 368.472V354.381C91.896 354.037 91.7589 353.707 91.515 353.463C91.271 353.22 90.9401 353.083 90.595 353.083H34.2205C33.8755 353.083 33.5446 353.22 33.3006 353.463C33.0566 353.707 32.9196 354.037 32.9196 354.381V368.472C32.9196 368.816 33.0566 369.146 33.3006 369.389C33.5446 369.633 33.8755 369.769 34.2205 369.769ZM89.2941 367.175H35.5215V355.678H89.2941V367.175Z" fill="#222433"/>
<path d="M60.933 267.603H200.482V273.441H60.933V267.603Z" fill="#E1000F"/>
<path d="M62.1913 271.819H123.639C123.985 271.819 124.315 271.683 124.559 271.439C124.803 271.196 124.94 270.866 124.94 270.522C124.94 270.178 124.803 269.848 124.559 269.605C124.315 269.361 123.985 269.225 123.639 269.225H62.1913C61.8462 269.225 61.5153 269.361 61.2713 269.605C61.0274 269.848 60.8903 270.178 60.8903 270.522C60.8903 270.866 61.0274 271.196 61.2713 271.439C61.5153 271.683 61.8462 271.819 62.1913 271.819Z" fill="#222433"/>
<path d="M77.3688 295.322H37.4729L37.4803 300.543H87.3427V321.562H37.5089L37.5163 326.824H177.065V295.281" fill="white"/>
<path d="M37.5161 328.121H177.065C177.41 328.121 177.741 327.985 177.985 327.741C178.229 327.498 178.366 327.168 178.366 326.824V295.281C178.366 294.936 178.229 294.606 177.985 294.363C177.741 294.12 177.41 293.983 177.065 293.983C176.72 293.983 176.389 294.12 176.145 294.363C175.901 294.606 175.764 294.936 175.764 295.281V325.526H38.8171L38.8132 322.859H87.3426C87.6876 322.859 88.0185 322.722 88.2625 322.479C88.5064 322.236 88.6435 321.906 88.6435 321.562V300.544C88.6435 300.2 88.5064 299.87 88.2625 299.626C88.0185 299.383 87.6876 299.246 87.3426 299.246H38.7789L38.7737 296.621H77.3686C77.7136 296.621 78.0445 296.485 78.2885 296.241C78.5325 295.998 78.6696 295.668 78.6696 295.324C78.6696 294.98 78.5325 294.65 78.2885 294.406C78.0445 294.163 77.7136 294.026 77.3686 294.026H37.4728C37.1278 294.026 36.7969 294.163 36.5529 294.406C36.3089 294.65 36.1718 294.98 36.1718 295.324L36.1788 300.545C36.1788 300.889 36.3158 301.219 36.5598 301.462C36.8038 301.705 37.1347 301.842 37.4797 301.842H86.0416V320.265H37.5092C37.1642 320.265 36.8333 320.402 36.5893 320.645C36.3453 320.888 36.2083 321.218 36.2083 321.562L36.2152 326.825C36.2154 327.169 36.3526 327.498 36.5965 327.742C36.8405 327.985 37.1713 328.121 37.5161 328.121Z" fill="#222433"/>
<path d="M177.065 348.447V330.232L43.9343 330.145V348.308L177.065 348.447Z" fill="white"/>
<path d="M177.065 349.745C177.41 349.745 177.741 349.608 177.985 349.365C178.229 349.122 178.366 348.791 178.366 348.447V330.232C178.366 329.888 178.229 329.558 177.985 329.315C177.741 329.072 177.41 328.935 177.065 328.935L43.9342 328.848C43.5891 328.848 43.2582 328.985 43.0142 329.228C42.7703 329.472 42.6332 329.802 42.6332 330.146V348.309C42.6332 348.654 42.7703 348.984 43.0142 349.227C43.2582 349.47 43.5891 349.607 43.9342 349.607L177.065 349.746V349.745ZM175.764 331.529V347.149L45.2351 347.012V331.444L175.764 331.529Z" fill="#222433"/>
<path d="M42.2451 328.146V350.332H181.794V346.872H45.4107V331.606H181.794V328.146H42.2451Z" fill="#000091"/>
<path d="M93.934 328.148H96.1023V350.334H93.934V328.148Z" fill="#000091"/>
<path d="M77.3689 274.782H216.917V295.324H77.3689V274.782Z" fill="white"/>
<path d="M77.3687 296.621H216.917C217.262 296.621 217.593 296.484 217.837 296.241C218.081 295.998 218.218 295.668 218.218 295.324V274.782C218.218 274.437 218.081 274.107 217.837 273.864C217.593 273.621 217.262 273.484 216.917 273.484H77.3687C77.0237 273.484 76.6927 273.621 76.4488 273.864C76.2048 274.107 76.0677 274.437 76.0677 274.782V295.324C76.0677 295.668 76.2048 295.998 76.4488 296.241C76.6927 296.484 77.0237 296.621 77.3687 296.621ZM215.616 294.026H78.6696V276.079H215.616V294.026Z" fill="#222433"/>
<path d="M109.112 328.121C109.457 328.121 109.788 327.985 110.032 327.741C110.276 327.498 110.413 327.168 110.413 326.824V296.146C110.413 295.801 110.276 295.471 110.032 295.228C109.788 294.985 109.457 294.848 109.112 294.848C108.767 294.848 108.436 294.985 108.192 295.228C107.948 295.471 107.811 295.801 107.811 296.146V326.824C107.811 327.168 107.948 327.498 108.192 327.741C108.436 327.985 108.767 328.121 109.112 328.121Z" fill="#222433"/>
<path d="M170.04 292.05H216.917C217.262 292.05 217.593 291.913 217.837 291.67C218.081 291.427 218.218 291.097 218.218 290.752C218.218 290.408 218.081 290.078 217.837 289.835C217.593 289.592 217.262 289.455 216.917 289.455H171.341V280.65H216.917C217.262 280.65 217.593 280.513 217.837 280.27C218.081 280.027 218.218 279.697 218.218 279.353C218.218 279.008 218.081 278.678 217.837 278.435C217.593 278.192 217.262 278.055 216.917 278.055H170.04C169.695 278.055 169.364 278.192 169.12 278.435C168.876 278.678 168.739 279.008 168.739 279.353V290.752C168.739 291.097 168.876 291.427 169.12 291.67C169.364 291.913 169.695 292.05 170.04 292.05Z" fill="#222433"/>
</g>
<g clip-path="url(#clip5_136_129524)">
<path d="M106.002 168.234C105.634 168.341 105.238 168.305 104.894 168.131C104.55 167.958 104.282 167.66 104.145 167.298L100.137 156.708C100.064 156.519 100.029 156.317 100.034 156.115C100.038 155.912 100.083 155.712 100.164 155.527C100.246 155.343 100.363 155.176 100.509 155.037C100.655 154.898 100.826 154.79 101.014 154.719C101.202 154.647 101.402 154.614 101.604 154.621C101.805 154.628 102.003 154.675 102.186 154.76C102.37 154.844 102.535 154.964 102.673 155.113C102.81 155.261 102.917 155.436 102.988 155.626L106.996 166.215C107.068 166.404 107.102 166.606 107.096 166.808C107.091 167.01 107.046 167.208 106.964 167.392C106.882 167.576 106.765 167.742 106.619 167.88C106.474 168.018 106.303 168.126 106.115 168.197C106.077 168.212 106.038 168.223 106.002 168.234Z" fill="#222433"/>
<path d="M149.765 169.533C149.516 169.606 149.253 169.614 148.999 169.555C148.746 169.496 148.511 169.374 148.317 169.199C148.123 169.024 147.977 168.802 147.891 168.554C147.806 168.307 147.784 168.042 147.829 167.784L149.748 156.635C149.817 156.234 150.042 155.877 150.373 155.644C150.704 155.411 151.114 155.32 151.513 155.392C151.912 155.464 152.267 155.693 152.5 156.028C152.733 156.362 152.825 156.776 152.756 157.178L150.837 168.327C150.788 168.609 150.662 168.872 150.473 169.085C150.283 169.298 150.038 169.453 149.765 169.533Z" fill="#222433"/>
<path d="M186.804 193.227C186.489 193.32 186.151 193.307 185.842 193.191C185.533 193.074 185.27 192.861 185.09 192.581C184.911 192.302 184.825 191.972 184.847 191.642C184.868 191.311 184.996 190.996 185.209 190.745L192.499 182.194C192.629 182.039 192.788 181.912 192.967 181.82C193.146 181.728 193.341 181.673 193.542 181.657C193.743 181.642 193.945 181.666 194.137 181.73C194.328 181.793 194.506 181.894 194.659 182.027C194.812 182.16 194.938 182.322 195.029 182.503C195.12 182.685 195.174 182.883 195.189 183.085C195.204 183.288 195.179 183.491 195.116 183.683C195.052 183.875 194.952 184.053 194.82 184.205L187.53 192.757C187.338 192.981 187.087 193.145 186.804 193.227Z" fill="#222433"/>
</g>
<g clip-path="url(#clip6_136_129524)">
<path d="M527.914 374.874C527.868 374.881 527.822 374.884 527.775 374.884L11.826 373.085C11.5869 373.085 11.358 372.989 11.1897 372.82C11.0214 372.652 10.9275 372.423 10.9286 372.185C10.9296 371.947 11.0257 371.719 11.1955 371.552C11.3654 371.384 11.5951 371.29 11.8342 371.291L527.784 373.089C528.011 373.09 528.23 373.175 528.396 373.33C528.562 373.484 528.664 373.695 528.681 373.92C528.697 374.146 528.627 374.37 528.485 374.547C528.343 374.723 528.139 374.84 527.914 374.874Z" fill="#222433"/>
</g>
</g>
<defs>
<clipPath id="clip0_136_129524">
<rect width="543" height="407" fill="white"/>
</clipPath>
<clipPath id="clip1_136_129524">
<rect width="206.679" height="206.552" fill="white" transform="matrix(-1 0 0 1 518.905 166.87)"/>
</clipPath>
<clipPath id="clip2_136_129524">
<rect width="242.314" height="342.558" fill="white" transform="translate(216.521 31.8818)"/>
</clipPath>
<clipPath id="clip3_136_129524">
<rect width="145.253" height="81.7392" fill="white" transform="translate(54.9785 185.524)"/>
</clipPath>
<clipPath id="clip4_136_129524">
<rect width="185.299" height="104.802" fill="white" transform="matrix(-1 0 0 1 218.218 267.603)"/>
</clipPath>
<clipPath id="clip5_136_129524">
<rect width="83.8121" height="61.0634" fill="white" transform="matrix(0.959695 -0.281045 0.281563 0.959543 99.6641 155.118)"/>
</clipPath>
<clipPath id="clip6_136_129524">
<rect width="511.761" height="80.0679" fill="white" transform="matrix(0.988948 -0.148261 0.148555 0.988904 10.8052 371.435)"/>
</clipPath>
</defs>
</svg>
