<svg width="198" height="151" viewBox="0 0 198 151" fill="none" xmlns="http://www.w3.org/2000/svg">
<rect width="55" height="20" transform="translate(20 20.001)" fill="white"/>
<path d="M37.7649 37.5897C37.7716 37.5897 37.7782 37.5799 37.7782 37.5799C37.8313 37.5407 37.8844 37.4917 37.9309 37.4328C37.9243 37.4328 37.9176 37.4328 37.911 37.423C37.8645 37.4721 37.8114 37.5309 37.7649 37.5897Z" fill="#000091"/>
<path d="M45.1222 35.1108L45.006 35.2108C45.0724 35.1941 45.1222 35.1775 45.1222 35.1108Z" fill="#000091"/>
<path fill-rule="evenodd" clip-rule="evenodd" d="M42.7435 37.6431C42.9566 37.4287 43.1697 37.2014 43.3828 36.9675H43.3764C43.7767 36.5128 44.1642 36.0776 44.6291 35.6814C44.7712 35.5515 44.9068 35.4411 45.0359 35.3501C45.0549 35.331 45.0646 35.3026 45.0741 35.2748C45.084 35.2457 45.0937 35.2173 45.1134 35.2007C45.0214 35.2358 44.948 35.2914 44.8743 35.3473C44.7979 35.405 44.7211 35.4632 44.6227 35.4995C44.5839 35.4995 44.5452 35.4605 44.5839 35.4216C44.7195 35.3241 44.8551 35.2202 44.9843 35.1163H44.9585C44.9197 35.1163 44.9197 35.0773 44.9197 35.0383C44.439 34.962 44.0698 35.2908 43.7392 35.5851L43.7186 35.6034C43.6671 35.6293 43.6185 35.6037 43.5803 35.5835C43.561 35.5733 43.5444 35.5645 43.5313 35.5645C43.2389 35.6625 42.9867 35.8433 42.7329 36.0253C42.499 36.1929 42.2638 36.3615 41.9944 36.4674V36.3894C41.903 36.421 41.8126 36.4621 41.7219 36.5033C41.5886 36.5639 41.4548 36.6248 41.3164 36.6557C41.0637 36.7144 40.8292 36.7068 40.602 36.6995C40.5274 36.6971 40.4535 36.6947 40.38 36.6947C39.9665 36.7357 39.5581 36.8243 39.1503 36.9128L39.0175 36.9415C39.011 36.9448 39.0046 36.9464 38.9981 36.948C38.9917 36.9497 38.9852 36.9513 38.9788 36.9545C38.7334 37.0195 38.5074 37.1104 38.2813 37.2403L38.2555 37.2533C38.2466 37.2652 38.2378 37.2758 38.2295 37.2856C38.2197 37.2972 38.2108 37.3077 38.2038 37.3183C38.1264 37.4092 38.0553 37.4872 37.9455 37.5456C37.7834 37.6272 37.6433 37.7529 37.5054 37.8767C37.4457 37.9303 37.3861 37.9837 37.3256 38.0328C37.3127 38.0458 37.2869 38.0523 37.2675 38.0523C37.0673 38.2471 36.8671 38.4421 36.6605 38.6304C36.6476 38.6434 36.5895 38.6499 36.5443 38.6434C36.5443 38.6434 36.5507 38.6434 36.5507 38.6369L36.5701 38.5979L36.667 38.442C36.6863 38.4128 36.7041 38.3836 36.7218 38.3543C36.7396 38.3251 36.7574 38.2959 36.7767 38.2666C36.8283 38.1888 36.8801 38.1107 36.9382 38.0393C36.9511 38.0198 36.9511 38.0003 36.9382 37.9873C36.9253 37.9743 36.9059 37.9679 36.8865 37.9679C37.0738 37.786 37.2933 37.6301 37.5193 37.4937V37.4872C37.4935 37.4937 37.4548 37.4742 37.4741 37.4482C37.4931 37.4244 37.5086 37.3971 37.5231 37.3714L37.5387 37.3443C37.5419 37.3378 37.5436 37.3329 37.5452 37.328C37.5468 37.3232 37.5484 37.3183 37.5516 37.3118C37.5484 37.3053 37.5436 37.3004 37.5387 37.2956C37.5339 37.2907 37.529 37.2858 37.5258 37.2793L37.4866 37.3052C37.4398 37.3358 37.3917 37.3673 37.3515 37.4027C37.3229 37.4273 37.2963 37.4609 37.2691 37.4955C37.2098 37.5704 37.1472 37.6496 37.0544 37.6496C37.0479 37.6496 37.0157 37.6496 36.9963 37.6431C36.9769 37.6431 36.964 37.6366 36.9575 37.6301C36.9575 37.6268 36.9575 37.6252 36.9583 37.6244C36.9592 37.6236 36.9608 37.6236 36.964 37.6236C36.964 37.6236 36.9705 37.6171 36.9705 37.6106C36.9705 37.6106 36.9705 37.6041 36.9769 37.6041C36.9801 37.5976 36.9834 37.5927 36.9866 37.5879C36.9898 37.583 36.9931 37.5781 36.9963 37.5716C36.9995 37.5651 37.0027 37.5602 37.006 37.5554C37.0092 37.5505 37.0124 37.5456 37.0157 37.5391C37.0189 37.5359 37.0205 37.531 37.0221 37.5261C37.0237 37.5213 37.0253 37.5164 37.0286 37.5132L37.0359 37.4998C37.0423 37.4884 37.0499 37.4748 37.0544 37.4612C37.0576 37.4547 37.0609 37.4498 37.0641 37.445C37.0673 37.4401 37.0706 37.4352 37.0738 37.4287C37.0835 37.4157 37.0915 37.4011 37.0996 37.3865C37.1077 37.3719 37.1158 37.3573 37.1254 37.3443C37.1319 37.3313 37.1384 37.3183 37.1513 37.3053C37.1577 37.2923 37.1642 37.2809 37.1706 37.2696C37.1771 37.2582 37.1836 37.2468 37.19 37.2338C37.2094 37.2014 37.19 37.1754 37.1642 37.1689C37.2352 37.078 37.3192 37 37.4225 36.9415H37.4096C37.4987 36.8967 37.5904 36.8442 37.6815 36.792C37.7352 36.7612 37.7896 36.7301 37.8422 36.7012C37.8616 36.6817 37.881 36.6622 37.9068 36.6492C37.6937 36.7207 37.5 36.8181 37.3127 36.948C37.3127 36.948 37.261 36.9675 37.2481 36.9805C37.2481 36.9805 37.2094 36.9935 37.1577 36.948C37.1513 36.9415 37.1513 36.935 37.1513 36.9221C37.1737 36.8769 37.22 36.847 37.27 36.8147C37.3064 36.7912 37.3447 36.7665 37.3773 36.7337C37.416 36.7337 37.4483 36.7337 37.4483 36.7727C38.192 36.1895 39.1091 36.0545 40.0292 35.9192C40.5951 35.8359 41.1622 35.7525 41.6909 35.5645C41.7458 35.5255 41.8023 35.4881 41.8588 35.4508C41.9153 35.4135 41.9718 35.3761 42.0267 35.3371C42.1209 35.2979 42.2053 35.2308 42.2947 35.1597C42.383 35.0894 42.4762 35.0153 42.5885 34.9604C42.8856 34.733 43.1116 34.4732 43.2278 34.09C43.2278 34.051 43.1891 34.012 43.1891 34.012C42.6983 34.5382 42.1365 34.9539 41.5359 35.2592C40.9633 35.5614 40.3497 35.6061 39.7423 35.6505C39.5141 35.6671 39.2867 35.6837 39.0627 35.7139C39.1014 35.6359 39.1789 35.6359 39.25 35.6359C39.25 35.5437 39.2942 35.504 39.3509 35.4531C39.366 35.4395 39.3821 35.425 39.3985 35.4086H39.5083C39.5276 35.4086 39.5373 35.3891 39.547 35.3696C39.5567 35.3501 39.5664 35.3306 39.5858 35.3306C39.6633 35.3306 39.773 35.2917 39.7343 35.2917C39.6751 35.2155 39.589 35.2457 39.494 35.2789C39.4027 35.3109 39.3031 35.3458 39.2112 35.2917C39.2454 35.2542 39.2556 35.2092 39.265 35.1683C39.2751 35.1241 39.2841 35.0845 39.321 35.0643H39.4695C39.4695 34.9864 39.547 34.9149 39.547 34.9149C39.8838 34.7124 40.209 34.5356 40.5281 34.3621C40.7413 34.2462 40.952 34.1317 41.1614 34.012C41.119 34.012 41.0815 34.0294 41.045 34.0463C40.987 34.0732 40.9318 34.0989 40.8644 34.051C40.9031 34.051 40.9031 34.0234 40.9031 33.9958C40.9031 33.9682 40.9031 33.9406 40.9419 33.9406C41.1841 33.8758 41.3997 33.7709 41.62 33.6638C41.7754 33.5882 41.9332 33.5114 42.1042 33.4469C42.0534 33.4469 42.0065 33.4606 41.9607 33.4739C41.8725 33.4995 41.7887 33.5239 41.6909 33.4469C41.7166 33.434 41.7373 33.4175 41.7577 33.4013C41.799 33.3684 41.8392 33.3365 41.9169 33.3365V33.2261C41.9169 33.1871 41.9557 33.1871 41.9944 33.1871C41.9557 33.1871 41.9169 33.1481 41.9169 33.1481C41.9375 33.1068 41.9779 33.0983 42.0229 33.0889C42.0629 33.0805 42.1065 33.0713 42.143 33.0377C42.1042 33.0377 42.0332 33.0377 42.0332 32.9987C42.143 32.8493 42.3302 32.8103 42.5175 32.7714C42.4981 32.7324 42.461 32.7324 42.4287 32.7324C42.3964 32.7324 42.369 32.7324 42.369 32.6934C42.369 32.6544 42.4077 32.6544 42.4465 32.6544H42.369C42.3082 32.6239 42.3189 32.5693 42.3264 32.5315C42.3284 32.5211 42.3302 32.512 42.3302 32.505C42.4819 32.3263 42.5318 32.1153 42.5814 31.9056C42.6057 31.8029 42.6299 31.7004 42.666 31.6021C42.6273 31.6021 42.5885 31.6021 42.5885 31.5632C42.2254 31.9662 41.6499 32.1189 41.1032 32.264L41.0516 32.2777H40.8644C40.6771 32.3556 40.4123 32.3556 40.2251 32.2387C40.136 32.192 40.0725 32.1336 40.0039 32.0705C39.9581 32.0284 39.91 31.9841 39.8505 31.9399C39.547 31.7515 39.25 31.6021 38.9142 31.4852C37.9778 31.1864 37.0027 31.0305 36.0277 31.0695C36.2999 30.9197 36.5891 30.8602 36.8821 30.7998C37.0338 30.7685 37.1865 30.7371 37.3385 30.6928C37.4344 30.6645 37.5294 30.6354 37.6239 30.6064C38.1595 30.4422 38.6791 30.2829 39.25 30.316C39.1753 30.2895 39.0796 30.2991 38.9915 30.3079C38.9502 30.312 38.9105 30.316 38.8754 30.316C38.4438 30.2839 38.0078 30.38 37.5528 30.4803C37.4564 30.5015 37.3592 30.5229 37.261 30.5434C37.0829 30.5804 36.9134 30.6337 36.7438 30.687C36.5568 30.7458 36.3695 30.8047 36.1697 30.8422C36.0831 30.872 36.0135 30.9229 35.9458 30.9725C35.8368 31.0522 35.7324 31.1285 35.5692 31.1085V30.9916C35.9437 30.5369 36.3957 30.0887 36.9963 30.0497C37.5768 29.9552 38.1242 30.0225 38.6952 30.0927C38.7911 30.1045 38.8877 30.1164 38.9852 30.1276C39.4533 30.1653 39.8912 30.2697 40.3632 30.3822L40.4123 30.394C40.5157 30.394 40.5738 30.4849 40.63 30.573C40.6758 30.6446 40.7203 30.7143 40.7869 30.7317C40.8788 30.7634 40.9707 30.7694 41.0627 30.7753C41.1968 30.7839 41.3308 30.7925 41.4649 30.8811C41.4649 30.8549 41.4605 30.8294 41.4562 30.8042C41.4476 30.7544 41.4392 30.7055 41.4649 30.6538C41.5482 30.57 41.6437 30.5925 41.7378 30.6146C41.8114 30.6319 41.884 30.649 41.9492 30.6148C42.154 30.4877 41.9619 30.2926 41.7697 30.0973C41.677 30.0032 41.5843 29.909 41.5359 29.8223C41.5359 29.7834 41.5747 29.7444 41.5747 29.7444C41.6595 29.8204 41.7385 29.8991 41.8168 29.9771C42.0129 30.1723 42.2047 30.3633 42.4723 30.4979C42.6596 30.5758 43.1116 30.6863 43.0341 30.4589C42.9015 30.1645 42.6749 29.9091 42.4461 29.6513C42.3519 29.5452 42.2573 29.4386 42.1688 29.3287V29.1793C42.1099 29.1793 42.0958 29.1568 42.0782 29.1289C42.0727 29.1201 42.0668 29.1107 42.059 29.1013V28.9519C41.9643 28.9023 41.9431 28.8235 41.9218 28.7444C41.9097 28.6994 41.8975 28.6542 41.8717 28.6142C41.807 28.5093 41.8024 28.3802 41.7976 28.2471C41.7937 28.1413 41.7898 28.0329 41.7555 27.9321C41.678 27.7048 41.6457 27.5164 41.607 27.2891C41.5649 27.0565 41.5187 26.8341 41.4734 26.6164C41.3934 26.2321 41.3165 25.8624 41.2712 25.4768C41.2114 24.9257 41.4897 24.4595 41.7742 23.9831C41.8586 23.8418 41.9435 23.6996 42.0203 23.5541C42.285 23.0994 42.5821 22.6512 43.0728 22.3459C43.1799 21.9024 43.4713 21.5331 43.7612 21.1656L43.7832 21.1377C44.0693 20.7811 44.5471 20.5631 44.8993 20.4024L44.9391 20.3842C45.4621 20.1504 45.9335 20.001 45.94 20.001H20V40.001H38.404C38.8962 39.6441 39.3854 39.419 39.9677 39.151C40.2334 39.0287 40.5185 38.8975 40.8321 38.7408C40.8985 38.7074 40.9774 38.6686 41.065 38.6255C41.5906 38.3669 42.428 37.9548 42.7435 37.6431ZM36.9037 34.9448C36.8307 34.9521 36.7533 34.9599 36.7825 34.9012C36.8096 34.7697 36.9442 34.7303 37.0757 34.6918C37.132 34.6754 37.1877 34.659 37.2341 34.6357L37.2554 34.6248L37.2709 34.6166C37.3437 34.5779 37.4328 34.5305 37.4986 34.558C37.543 34.6211 37.598 34.6374 37.6514 34.6533C37.6912 34.665 37.7301 34.6766 37.7631 34.707C37.6236 34.847 37.4607 34.8608 37.2955 34.8749C37.1858 34.8842 37.0752 34.8935 36.9696 34.9401C36.9506 34.9401 36.9274 34.9424 36.9037 34.9448ZM31.1906 34.0313C31.1906 34.0703 31.2293 34.1093 31.2293 34.1093C32.1334 33.0895 32.9535 32.2191 34.1159 31.498C34.147 31.485 34.1354 31.5013 34.12 31.5229C34.0971 31.5552 34.0657 31.5993 34.1546 31.576C34.5394 31.4882 34.7123 31.1586 34.8804 30.8378C34.9239 30.7549 34.967 30.6726 35.0135 30.5951C35.1898 30.3083 35.4403 30.1246 35.6927 29.9394C35.8747 29.8058 36.0577 29.6716 36.2146 29.4974C36.2146 29.5364 36.2146 29.5753 36.1758 29.6143C36.2146 29.6533 36.2533 29.6533 36.2921 29.6533C36.3602 29.6019 36.4346 29.5806 36.5058 29.5602C36.5967 29.5342 36.6826 29.5097 36.7441 29.4259C36.4471 29.309 36.0661 29.27 35.769 29.387C34.9812 29.7637 34.3096 30.3678 33.6703 31.0498C33.2828 31.4591 32.8825 31.8423 32.3917 32.1086C32.0559 32.7842 31.6814 33.3883 31.1906 34.0313ZM34.3432 31.6155C34.3229 31.6561 34.3027 31.6773 34.2834 31.6975C34.2658 31.7159 34.2489 31.7335 34.2335 31.7644C34.1948 31.8421 34.1561 31.8745 34.0851 31.9133C34.0464 31.9133 34.0077 31.9133 34.0077 31.8745C34.0464 31.7256 34.1561 31.5767 34.3045 31.5378C34.3432 31.5443 34.3432 31.5831 34.3432 31.6155ZM35.9945 37.384C36.0267 37.3516 36.0654 37.3126 36.0848 37.2736C36.1171 37.1957 35.9171 37.2152 35.8848 37.2346C35.8555 37.2582 35.8369 37.2818 35.8144 37.3102L35.8074 37.3191C35.7805 37.3501 35.749 37.3787 35.717 37.4078C35.6953 37.4275 35.6734 37.4475 35.6526 37.4685C35.5622 37.5594 35.4719 37.6504 35.3751 37.7348C35.3106 37.7933 35.5171 37.8193 35.5622 37.7803C35.6138 37.7413 35.659 37.6958 35.7042 37.6504C35.7214 37.6504 35.7386 37.6475 35.75 37.6456L35.7579 37.6443L35.7622 37.6439C35.8692 37.608 35.9488 37.5335 36.0262 37.4611L36.0461 37.4425C36.0719 37.4165 36.0396 37.3905 35.9945 37.384ZM35.4106 36.9616C35.4099 36.9618 35.4094 36.962 35.409 36.9623C35.4082 36.9631 35.4082 36.9647 35.4082 36.968C35.3686 36.9952 35.3295 37.0228 35.2905 37.0504C35.1895 37.1219 35.0891 37.1929 34.982 37.2538C34.8796 37.3115 34.7746 37.3614 34.6686 37.4117C34.6075 37.4406 34.5462 37.4698 34.4848 37.5006C34.4848 37.5006 34.4848 37.4941 34.4783 37.4941C34.4654 37.4747 34.4396 37.4682 34.4138 37.4812C34.2717 37.5591 34.149 37.663 34.0392 37.7735C34.0199 37.7864 34.0005 37.8059 33.9876 37.8254L33.9294 37.8839V37.8904C33.9036 37.9164 33.8778 37.9423 33.8455 37.9813C33.8388 37.9881 33.8336 37.9948 33.8287 38.0013C33.8193 38.0135 33.8107 38.0248 33.7938 38.0333C33.768 38.0463 33.7034 38.0463 33.7099 38.0073V38.0008C33.6905 38.0138 33.6647 38.0268 33.6453 38.0333C33.6356 38.0398 33.6259 38.0446 33.6163 38.0495C33.6066 38.0544 33.5969 38.0593 33.5872 38.0658C33.5807 38.0593 33.5678 38.0593 33.5614 38.0593C33.5549 38.0593 33.542 38.0593 33.5355 38.0658C33.5205 38.0787 33.5054 38.091 33.4903 38.1033C33.4602 38.1278 33.4301 38.1524 33.3999 38.1827C33.3224 38.2541 33.2514 38.3321 33.1804 38.4165C33.1804 38.4165 33.1804 38.423 33.1739 38.423C33.1739 38.4263 33.1723 38.4279 33.1707 38.4295C33.1691 38.4311 33.1675 38.4328 33.1675 38.436L33.1545 38.449C33.1521 38.4515 33.1505 38.454 33.1492 38.4561C33.1471 38.4595 33.1456 38.462 33.1416 38.462L33.1352 38.4685C33.1287 38.4815 33.1223 38.4945 33.1093 38.5075C33.1029 38.514 33.09 38.5205 33.0771 38.5205C33.0706 38.514 33.0641 38.5075 33.0641 38.501C33.0609 38.4977 33.0593 38.4945 33.0577 38.4912C33.0561 38.488 33.0544 38.4847 33.0512 38.4815C33.0448 38.4717 33.0399 38.462 33.0351 38.4522C33.0302 38.4425 33.0254 38.4328 33.0189 38.423V38.4165C33.0189 38.4133 33.0173 38.41 33.0157 38.4068C33.0141 38.4035 33.0125 38.4003 33.0125 38.397L33.1287 38.2606L33.1352 38.2541C33.1416 38.2476 33.1481 38.2395 33.1545 38.2314C33.161 38.2233 33.1675 38.2152 33.1739 38.2087C33.1836 38.1957 33.1949 38.1827 33.2062 38.1697C33.2175 38.1567 33.2288 38.1437 33.2385 38.1307C33.2417 38.1242 33.2449 38.1193 33.2482 38.1145C33.2514 38.1096 33.2546 38.1047 33.2579 38.0982C33.2966 38.0463 33.3354 37.9943 33.3741 37.9358V37.9293C33.3806 37.9229 33.387 37.9164 33.387 37.9034C33.4064 37.8774 33.4258 37.8514 33.4387 37.8254L33.4774 37.7475V37.741L33.4839 37.7345C33.4839 37.7312 33.4855 37.7296 33.4871 37.728C33.4887 37.7264 33.4903 37.7247 33.4903 37.7215C33.4968 37.7053 33.5032 37.6907 33.5097 37.6761C33.5161 37.6614 33.5226 37.6468 33.5291 37.6306V37.6241L33.5355 37.5981C33.5388 37.5916 33.5404 37.5851 33.542 37.5786C33.5436 37.5721 33.5452 37.5656 33.5485 37.5591V37.5526C33.5517 37.5429 33.5533 37.5331 33.5549 37.5234C33.5565 37.5136 33.5581 37.5039 33.5614 37.4941C33.5614 37.4876 33.5614 37.4747 33.5549 37.4682C33.5937 37.3967 33.6453 37.3318 33.7034 37.2668C33.7002 37.2668 33.697 37.2684 33.6937 37.27C33.6919 37.271 33.69 37.2719 33.6882 37.2725C33.6868 37.273 33.6854 37.2733 33.6841 37.2733C33.6553 37.2914 33.6306 37.3155 33.6054 37.34C33.5853 37.3596 33.5649 37.3794 33.542 37.3967C33.5032 37.4292 33.4258 37.3772 33.4774 37.3382C33.5097 37.3123 33.5355 37.2863 33.5613 37.2603C33.5613 37.2603 33.5614 37.2538 33.5678 37.2538C33.5936 37.2305 33.6183 37.2041 33.6432 37.1775C33.6808 37.1373 33.7188 37.0967 33.7615 37.0654C33.8068 37.033 33.839 37.007 33.8778 36.9745C33.8842 36.968 33.8907 36.9615 33.8972 36.9615C33.923 36.929 33.9488 36.8965 33.9811 36.8641C33.9811 36.8641 33.9876 36.8641 33.9876 36.8576C34.2093 36.6425 34.5209 36.5666 34.839 36.4892C35.0396 36.4403 35.2428 36.3909 35.4276 36.3054C35.532 36.262 35.6484 36.2791 35.7635 36.296C35.8548 36.3094 35.9453 36.3227 36.0282 36.3054C36.1379 36.3054 36.2542 36.3054 36.3639 36.3834C36.1086 36.5194 35.8649 36.6749 35.6238 36.8287C35.554 36.8732 35.4843 36.9178 35.4147 36.9615C35.4129 36.9615 35.4116 36.9615 35.4106 36.9616ZM36.2176 34.3142C36.1874 34.3177 36.1678 34.3199 36.1846 34.3368C36.2943 34.4472 36.5204 34.4083 36.6753 34.3238C36.7851 34.2459 36.9014 34.2459 37.0499 34.2459C37.0886 34.2459 37.0886 34.1744 37.0886 34.1355C37.1984 34.1744 37.2759 34.1744 37.3857 34.1744C38.2833 33.9861 39.1486 33.7977 39.9751 33.382C39.1388 32.7357 38.1077 32.4478 37.0978 32.1658C36.9302 32.1191 36.7632 32.0724 36.5978 32.0244C36.6342 32.0244 36.6706 32.0365 36.7072 32.0487C36.781 32.0733 36.8559 32.0982 36.9336 32.0244C36.8312 31.9426 36.7171 31.927 36.6041 31.9115C36.5106 31.8987 36.4179 31.886 36.3331 31.836C36.3419 31.836 36.3525 31.838 36.3639 31.8402C36.4026 31.8477 36.4517 31.8572 36.4816 31.797C36.2855 31.6984 36.0893 31.6649 35.8913 31.631C35.7894 31.6136 35.6871 31.5962 35.584 31.5697C35.7713 31.5307 35.8875 31.3813 35.8875 31.1929C35.8875 31.154 35.81 31.154 35.7713 31.154C35.3257 31.3813 35.0222 31.797 34.8349 32.2842C35.0038 32.3836 35.1857 32.3721 35.3641 32.3608C35.4654 32.3544 35.5656 32.348 35.6615 32.3621C35.5768 32.4426 35.4545 32.4644 35.3368 32.4854C35.293 32.4933 35.2498 32.501 35.2095 32.5115C35.0932 32.5375 34.9835 32.622 35.0222 32.6999C35.048 32.7324 35.0739 32.7454 35.1062 32.7519C35.0222 32.7779 34.9447 32.8168 34.8737 32.8883C34.98 32.972 35.0896 32.9558 35.1978 32.9399C35.2408 32.9336 35.2835 32.9273 35.3257 32.9273C35.3257 32.9744 35.3567 32.9905 35.3889 33.0071C35.4054 33.0157 35.4223 33.0245 35.4355 33.0377C35.2482 33.1091 35.0997 33.265 35.0609 33.3755C35.0147 33.488 34.9292 33.5611 34.8445 33.6336C34.7874 33.6825 34.7306 33.731 34.6864 33.7912V33.9081C34.5617 34.0187 34.4334 34.1175 34.307 34.2149C34.0472 34.415 33.7949 34.6093 33.5951 34.8889C33.6338 34.8889 33.6338 34.9279 33.6338 34.9669C33.5981 35.0208 33.5473 35.0581 33.4991 35.0936C33.4427 35.1349 33.3899 35.1737 33.3691 35.2332C33.3691 35.2722 33.3691 35.3112 33.4078 35.3112C33.6448 35.2328 33.8498 35.101 34.0508 34.9717C34.2332 34.8544 34.4123 34.7392 34.6089 34.6681C34.7696 34.6294 34.9095 34.5566 35.046 34.4855C35.1618 34.4251 35.2752 34.3661 35.3967 34.3303C35.4904 34.3108 35.5937 34.2832 35.697 34.2556C35.8003 34.228 35.9037 34.2004 35.9973 34.1809C35.9973 34.2199 35.9973 34.2589 36.036 34.2589H36.3331C36.3148 34.303 36.2571 34.3097 36.2176 34.3142Z" fill="#000091"/>
<path d="M75 20.001H53.4884C53.4884 20.001 53.5274 20.0075 53.69 20.092C53.8656 20.183 54.0932 20.3066 54.2297 20.3781C54.5094 20.5211 54.776 20.7032 54.9516 20.9828C55.0296 21.0933 55.1401 21.3209 55.0686 21.4704C54.9906 21.659 54.9516 21.9646 54.763 22.0361C54.5354 22.1531 54.2362 22.1531 53.9696 22.1141C53.8201 22.1141 53.6705 22.0751 53.5144 22.0361C54.0802 22.2637 54.6134 22.5302 54.9906 23.0569C55.0296 23.1349 55.1792 23.1674 55.3287 23.1674C55.3677 23.1674 55.3677 23.2455 55.3677 23.278C55.2897 23.356 55.2182 23.395 55.2572 23.5055H55.3677C55.5563 23.4275 55.5173 23.0504 55.7839 23.1674C55.9725 23.278 56.0505 23.5445 55.9335 23.7331C55.7839 23.8826 55.6344 23.9997 55.4783 24.1102C55.4393 24.1882 55.4393 24.2988 55.4783 24.3768C55.5888 24.5263 55.6279 24.6759 55.6669 24.8319C55.7839 25.0985 55.8164 25.3976 55.9335 25.6642C56.0831 26.2298 56.2326 26.7955 56.2001 27.3677C56.2001 27.6668 56.0505 27.9334 56.1611 28.2389C56.2391 28.538 56.4277 28.7656 56.5773 29.0322C56.7268 29.2598 56.8764 29.4093 56.9935 29.6369C57.2211 30.014 57.6373 30.3911 57.4487 30.8462C57.3381 31.1128 56.9219 31.0738 56.6553 31.2233C56.4277 31.4119 56.6163 31.7175 56.7334 31.906C56.9219 32.2441 56.5057 32.4717 56.2391 32.5888C56.3172 32.7058 56.4667 32.6668 56.5057 32.7383C56.5448 32.9269 56.7334 33.0374 56.6163 33.2324C56.4667 33.46 56.0115 33.5705 56.2391 33.9152C56.3887 34.1817 56.2912 34.4743 56.2001 34.7474C56.0896 35.0855 55.7839 35.235 55.5173 35.3131C55.2897 35.3911 55.0231 35.3911 54.802 35.3521C54.724 35.3131 54.6524 35.2741 54.5744 35.2741C53.9306 35.196 53.2868 35.014 52.6495 35.014C52.461 35.053 52.2724 35.0855 52.1228 35.1635C51.9537 35.2871 51.7977 35.4236 51.6676 35.5666C51.6676 35.5666 51.6676 35.5666 51.6611 35.5731C51.6351 35.6057 51.6026 35.6317 51.5766 35.6642C51.5636 35.6837 51.544 35.7032 51.531 35.7227C51.518 35.7357 51.5115 35.7487 51.4985 35.7617C51.388 35.8982 51.2904 36.0478 51.1994 36.1973C51.1929 36.2103 51.1864 36.2168 51.1799 36.2233C51.1734 36.2428 51.1604 36.2559 51.1474 36.2754C51.0238 36.5029 50.9328 36.737 50.8612 36.9711C50.6011 37.8358 50.7182 38.577 50.9003 38.7591C50.9523 38.8111 52.1488 39.1817 52.9812 39.5523C53.3714 39.7279 53.6445 39.8579 53.8721 40.001H74.9935V20.001H75Z" fill="#E1000F"/>
<path d="M54.7665 27.2955C54.9161 27.3345 55.1437 27.3345 55.1437 27.4124C55.0657 27.7111 54.6169 27.789 54.3892 28.0942H54.2722C54.1616 28.1721 54.1941 28.3604 54.0835 28.3604C53.973 28.3215 53.8559 28.3604 53.7453 28.3994C53.8949 28.5488 54.0835 28.6656 54.3112 28.6267C54.3502 28.6267 54.4218 28.7046 54.4218 28.776C54.4218 28.776 54.4608 28.776 54.4998 28.7371C54.5388 28.7371 54.5779 28.7371 54.5779 28.776V28.9254C54.4673 29.0747 54.2722 29.0033 54.1226 29.0358C54.4283 29.1137 54.7275 29.1137 54.9941 29.0358C55.2218 28.9578 54.9941 28.5812 55.1437 28.3929C55.0657 28.3929 55.1437 28.276 55.0657 28.276C55.1437 28.1981 55.2153 28.0877 55.2933 28.0488C55.3714 28.0488 55.4819 28.0098 55.521 27.9319C55.521 27.854 55.3714 27.8215 55.4039 27.7436C55.6315 27.5942 55.8202 27.3669 55.7421 27.1397C55.7031 27.0228 55.4039 27.0228 55.2153 26.9514C55.0267 26.8799 54.799 26.9514 54.5714 26.9903C54.3827 26.9903 54.1941 27.1072 54.0055 27.1397C53.7388 27.2176 53.5112 27.3669 53.29 27.5163C53.5567 27.4059 53.8169 27.3669 54.1226 27.289C54.3502 27.2955 54.5388 27.2436 54.7665 27.2955Z" fill="#808080"/>
<path d="M22.06 65.001H24.9V54.961L28.02 60.201H30.02L33.14 54.961V65.001H35.98V51.001H32.44L29.02 56.881L25.6 51.001H22.06V65.001ZM40.1873 65.001H43.0273V51.001H40.1873V65.001ZM47.2405 65.001H50.0805V54.881L56.3405 65.001H59.9805V51.001H57.1405V61.121L50.8805 51.001H47.2405V65.001ZM64.1959 65.001H67.0359V51.001H64.1959V65.001ZM69.9891 63.061C71.2291 64.541 72.8091 65.401 75.1691 65.401C77.7491 65.401 79.7891 63.821 79.8291 61.181C79.8291 56.381 73.4691 57.101 73.4691 54.561C73.4691 53.721 74.1291 53.081 75.1291 53.081C76.1891 53.081 77.1091 53.781 77.9291 54.841L80.0091 52.961C78.8091 51.541 77.2091 50.601 75.1091 50.601C72.4291 50.601 70.5891 52.441 70.5891 54.661C70.5891 59.401 76.9491 58.701 76.9491 61.281C76.9491 62.281 76.2691 62.881 75.1491 62.881C74.0091 62.881 72.8891 62.241 72.0491 61.161L69.9891 63.061ZM81.5692 53.581H85.8892V65.001H88.7292V53.581H93.0492V51.001H81.5692V53.581ZM98.6636 49.801H101.264L99.0036 47.101H96.0836L98.6636 49.801ZM95.8436 65.001H104.004V62.641H98.6836V59.041H103.204V56.681H98.6836V53.361H104.004V51.001H95.8436V65.001ZM107.604 65.001H110.444V59.341H111.904L115.644 65.001H118.984L114.604 58.801C116.044 58.141 116.864 56.881 116.864 55.181C116.864 52.581 114.964 51.001 111.884 51.001H107.604V65.001ZM112.044 53.361C113.244 53.361 113.944 54.081 113.944 55.141C113.944 56.281 113.244 56.981 112.044 56.981H110.444V53.361H112.044ZM121.083 65.001H129.243V62.641H123.923V59.041H128.443V56.681H123.923V53.361H129.243V51.001H121.083V65.001ZM22.06 86.001H27.56C32 86.001 35 82.781 35 79.001C35 75.221 32 72.001 27.56 72.001H22.06V86.001ZM27.6 74.581C30.2 74.581 32.08 76.501 32.08 79.001C32.08 81.481 30.2 83.421 27.6 83.421H24.9V74.581H27.6ZM38.0389 86.001H46.1989V83.641H40.8789V80.041H45.3989V77.681H40.8789V74.361H46.1989V72.001H38.0389V86.001ZM55.2897 86.001H63.4497V83.421H58.1297V72.001H55.2897V86.001ZM65.0945 86.001H68.1145L69.4545 82.361H75.0545L76.3945 86.001H79.4145L74.1145 72.001H70.3945L65.0945 86.001ZM70.3345 79.941L72.2545 74.681L74.1745 79.941H70.3345ZM93.607 83.741C90.967 83.741 89.087 81.681 89.087 79.001C89.087 76.321 90.967 74.261 93.607 74.261C95.207 74.261 96.467 75.041 97.267 76.181L99.507 74.441C98.227 72.741 96.147 71.601 93.607 71.601C89.187 71.601 86.167 75.001 86.167 79.001C86.167 83.001 89.187 86.401 93.607 86.401C96.147 86.401 98.227 85.281 99.507 83.541L97.267 81.821C96.467 82.961 95.207 83.741 93.607 83.741ZM110.372 80.761C110.372 82.641 109.292 83.741 107.552 83.741C105.772 83.741 104.712 82.641 104.712 80.761V72.001H101.872V80.521C101.872 84.201 104.032 86.401 107.532 86.401C111.052 86.401 113.212 84.201 113.212 80.521V72.001H110.372V80.761ZM117.04 86.001H125.2V83.421H119.88V72.001H117.04V86.001ZM124.918 74.581H129.238V86.001H132.078V74.581H136.398V72.001H124.918V74.581ZM147.449 80.761C147.449 82.641 146.369 83.741 144.629 83.741C142.849 83.741 141.789 82.641 141.789 80.761V72.001H138.949V80.521C138.949 84.201 141.109 86.401 144.609 86.401C148.129 86.401 150.289 84.201 150.289 80.521V72.001H147.449V80.761ZM154.117 86.001H156.957V80.341H158.417L162.157 86.001H165.497L161.117 79.801C162.557 79.141 163.377 77.881 163.377 76.181C163.377 73.581 161.477 72.001 158.397 72.001H154.117V86.001ZM158.557 74.361C159.757 74.361 160.457 75.081 160.457 76.141C160.457 77.281 159.757 77.981 158.557 77.981H156.957V74.361H158.557ZM167.596 86.001H175.756V83.641H170.436V80.041H174.956V77.681H170.436V74.361H175.756V72.001H167.596V86.001Z" fill="#1E1E1E"/>
<path fill-rule="evenodd" clip-rule="evenodd" d="M71.96 121.701L70.1 123.401H69.62L70.72 121.461H71.96V121.701ZM70.62 128.28H70.22C69.72 128.88 69.16 129.36 68.62 129.36C68.06 129.36 67.78 129.02 67.78 128.28C67.78 127.98 67.82 127.66 67.88 127.38L71.14 126.3C71.78 124.78 71.02 124.12 70.12 124.12C68.58 124.12 66.82 126.82 66.82 128.98C66.82 130 67.3 130.56 68.06 130.56C68.94 130.54 69.86 129.68 70.62 128.28ZM69.5012 125.001C69.9412 125.001 70.3213 125.341 70.1213 126.121L68.1012 126.661C68.4212 125.701 69.0212 125.001 69.5012 125.001ZM63.1421 125.04H64.2221L62.5021 129.76C62.3421 130.16 62.5621 130.56 62.9821 130.56C64.2021 130.56 65.6621 129.52 66.2221 128.04H65.9221C65.4821 128.66 64.5221 129.34 63.8021 129.46L65.3821 125.04H67.0021L67.2021 124.36H65.6221L66.2221 122.66H65.6021L64.4821 124.36L63.1421 124.54V125.04ZM61.6409 124.141C61.8609 124.141 62.161 124.381 62.021 124.821L60.0809 129.521C60.5809 129.441 61.1009 128.961 61.4009 128.521H61.7209C61.2609 129.701 60.2209 130.561 59.3209 130.561C59.1009 130.561 58.7809 130.321 58.9409 129.881L60.7409 125.181C60.2409 125.261 59.7209 125.741 59.4209 126.181H59.1209C59.5809 124.981 60.7009 124.141 61.6409 124.141ZM62.2023 122.941C62.6023 122.941 62.9423 122.621 62.9423 122.201C62.9423 121.801 62.6023 121.461 62.2023 121.461C61.7823 121.461 61.4623 121.801 61.4623 122.201C61.4623 122.601 61.8023 122.941 62.2023 122.941ZM53.4619 126.841C53.9019 125.881 53.7419 125.441 53.4619 125.441C53.2219 125.441 52.9418 125.701 52.6618 126.181H52.3618C52.8218 125.161 53.4219 124.141 54.0819 124.141C54.6419 124.141 54.8419 124.701 54.8419 125.321V126.201C54.9319 126.096 55.0195 125.994 55.1051 125.893L55.1067 125.891L55.108 125.89C55.9529 124.898 56.5981 124.141 57.3419 124.141C57.9219 124.141 58.2219 124.501 58.2219 125.041C58.2219 125.361 58.1219 125.761 57.9019 126.181L56.2419 129.521C56.7419 129.441 57.2619 128.961 57.5619 128.521H57.8619C57.4019 129.721 56.2819 130.561 55.3419 130.561C54.9219 130.561 54.6819 130.121 54.8619 129.761L56.7819 126.061C57.0019 125.641 57.0419 125.361 56.7019 125.361C56.2419 125.361 55.1619 126.121 54.5819 126.821L53.3219 130.141C53.1819 130.481 53.0419 130.561 52.7218 130.561C52.2018 130.561 51.9418 130.221 52.1818 129.681L53.4619 126.841ZM52.1604 125.56C52.3804 124.8 52.2604 124.12 51.6803 124.12C50.957 124.12 50.7305 124.598 50.0296 126.076L49.9803 126.18V125.3C49.9803 124.68 49.7803 124.12 49.2203 124.12C48.5603 124.12 47.9603 125.14 47.5003 126.16H47.8003C48.1203 125.7 48.4203 125.42 48.6603 125.42C48.9403 125.42 49.1003 125.86 48.6603 126.82L47.3803 129.66C47.1403 130.2 47.4003 130.54 47.9203 130.54C48.2403 130.54 48.3803 130.46 48.5203 130.12L49.7803 126.8C50.1403 126.36 50.4603 125.98 50.8603 125.56H52.1604ZM45.8407 126.121C46.0407 125.341 45.6607 125.001 45.2207 125.001C44.7407 125.001 44.1407 125.701 43.8207 126.661L45.8407 126.121ZM46.3395 128.28H45.9395C45.4395 128.88 44.8795 129.36 44.3394 129.36C43.7794 129.36 43.4994 129.02 43.4994 128.28C43.4994 127.98 43.5394 127.66 43.5994 127.38L46.8595 126.3C47.4995 124.78 46.7395 124.12 45.8395 124.12C44.2994 124.12 42.5394 126.82 42.5394 128.98C42.5394 130 43.0194 130.56 43.7794 130.56C44.6595 130.54 45.5795 129.68 46.3395 128.28ZM39.9415 125.04H38.8615V124.54L40.2016 124.36L41.3216 122.66H41.9416L41.3416 124.36H42.9216L42.7216 125.04H41.1016L39.5215 129.46C40.2416 129.34 41.2016 128.66 41.6416 128.04H41.9416C41.3816 129.52 39.9215 130.56 38.7015 130.56C38.2815 130.56 38.0615 130.16 38.2215 129.76L39.9415 125.04ZM33.1424 128.7C33.1424 127.24 34.7625 125.281 35.6625 125.281C35.8625 125.281 36.0625 125.301 36.2225 125.361L35.2825 127.88C34.7425 128.54 33.9025 129.34 33.5024 129.34C33.2824 129.34 33.1424 129.14 33.1424 128.7ZM37.603 123.821L38.103 123.861L36.363 127.86C35.943 128.82 36.123 129.26 36.363 129.26C36.603 129.26 36.903 128.98 37.223 128.52H37.523C37.063 129.54 36.463 130.56 35.803 130.56C35.243 130.56 34.903 129.96 35.003 128.88L35.043 128.5L34.9341 128.653C34.2176 129.654 33.5693 130.56 32.9029 130.56C32.3229 130.56 32.0229 130.2 32.0229 129.66C32.0229 127.34 34.563 124.381 36.943 124.381H37.043L37.603 123.821ZM33.0217 125.56C33.2417 124.8 33.1217 124.12 32.5417 124.12C31.8183 124.12 31.5918 124.598 30.8909 126.076L30.8417 126.18V125.3C30.8417 124.68 30.6417 124.12 30.0816 124.12C29.4216 124.12 28.8216 125.14 28.3616 126.16H28.6616C28.9816 125.7 29.2816 125.42 29.5016 125.42C29.7816 125.42 29.9416 125.86 29.5016 126.82L28.2216 129.68C27.9816 130.22 28.2416 130.56 28.7616 130.56C29.0816 130.56 29.2216 130.48 29.3616 130.14L30.6217 126.82C30.9817 126.38 31.3017 126 31.7017 125.58H33.0217V125.56ZM24.7801 129.959L24.6601 130.319H20L20.12 129.939C21.56 129.679 21.8 129.559 22.4 127.939L23.7001 124.459C24.2801 122.839 24.1601 122.719 22.9 122.459L23.02 122.099H29.0801L28.7201 124.039H28.2801C28.2801 122.879 28.1601 122.579 27.0601 122.579H26.7801C25.7001 122.579 25.5601 122.739 25.2601 123.579L24.4001 125.919H25.6601C26.5001 125.919 26.8201 125.399 27.2001 124.719H27.6401L26.6001 127.559H26.1601C26.2601 126.699 26.2601 126.359 25.4801 126.359H24.2201L23.6401 127.959C23.0131 129.624 23.1923 129.658 24.6852 129.941C24.7163 129.946 24.7479 129.952 24.7801 129.959Z" fill="black"/>
<path fill-rule="evenodd" clip-rule="evenodd" d="M28.7397 106.401L26.8797 107.741V107.761H26.3997L27.4997 106.161H28.7397V106.401ZM41.7415 115.781L44.7214 107.861L44.6214 107.741L42.5615 107.981V108.221L42.9615 108.521C43.3029 108.787 43.2125 109.034 42.9292 109.81L42.8815 109.941L40.6015 116.021C40.4215 116.381 40.6615 116.821 41.0815 116.821C42.0215 116.821 43.0215 115.961 43.4815 114.781H43.1815C42.8615 115.221 42.2215 115.701 41.7415 115.781ZM55.4 109.681L57.26 107.981V107.741H56.02L54.92 109.681H55.4ZM55.5187 114.541H55.9187C55.1787 115.961 54.2587 116.821 53.3787 116.821C52.6187 116.821 52.1387 116.261 52.1387 115.241C52.1387 113.081 53.8987 110.381 55.4387 110.381C56.3187 110.381 57.0987 111.041 56.4587 112.561L53.1787 113.641C53.1187 113.921 53.0787 114.241 53.0787 114.541C53.0787 115.281 53.3587 115.621 53.9187 115.621C54.4587 115.621 55.0187 115.141 55.5187 114.541ZM55.4177 112.381C55.6177 111.621 55.2377 111.281 54.7977 111.281C54.3377 111.281 53.7377 111.981 53.3977 112.921L55.4177 112.381ZM49.5377 111.32H48.4577V110.821L49.7977 110.641L50.9177 108.941H51.5377L50.9377 110.641H52.5177L52.3177 111.32H50.6977L49.1177 115.74C49.8377 115.62 50.7977 114.94 51.2377 114.32H51.5377C50.9777 115.8 49.5177 116.84 48.2977 116.84C47.8777 116.84 47.6577 116.44 47.8177 116.04L49.5377 111.32ZM47.3376 111.08C47.4576 110.64 47.1776 110.4 46.9376 110.4C45.9976 110.4 44.8776 111.26 44.4176 112.44H44.7176C45.0176 112 45.5376 111.52 46.0376 111.44L44.2376 116.14C44.0776 116.58 44.3976 116.82 44.6176 116.82C45.5176 116.82 46.5576 115.96 47.0176 114.78H46.7176C46.4176 115.22 45.8976 115.7 45.3976 115.78L47.3376 111.08ZM48.2591 108.481C48.2591 108.881 47.9191 109.221 47.5191 109.221C47.1191 109.221 46.7791 108.881 46.7791 108.481C46.7791 108.081 47.0991 107.741 47.5191 107.741C47.9191 107.741 48.2591 108.081 48.2591 108.481ZM38.1612 111.561C37.2612 111.561 35.6412 113.521 35.6412 114.981C35.6412 115.421 35.7812 115.621 36.0212 115.621C36.4012 115.621 37.2412 114.821 37.7812 114.161L38.7212 111.641C38.5412 111.581 38.3612 111.561 38.1612 111.561ZM40.6017 110.141L40.1017 110.101L39.5417 110.661H39.4417C37.0617 110.661 34.5217 113.621 34.5217 115.941C34.5217 116.481 34.8217 116.841 35.4017 116.841C36.0681 116.841 36.7164 115.935 37.4328 114.933L37.5417 114.781L37.5017 115.161C37.4017 116.241 37.7417 116.841 38.3017 116.841C38.9617 116.841 39.5617 115.821 40.0217 114.801H39.7217C39.4017 115.261 39.1017 115.541 38.8617 115.541C38.6217 115.541 38.4417 115.101 38.8617 114.141L40.6017 110.141ZM30.5206 116.621C29.6606 116.961 29.0606 117.361 29.0606 117.981C29.0606 118.561 29.6006 118.801 30.7206 118.801C32.2206 118.801 33.0406 118.361 33.0406 117.781C33.0406 117.521 32.7006 117.401 31.8006 117.101C31.2206 116.921 30.8006 116.761 30.5206 116.621ZM31.5193 114.161C31.1193 114.161 30.9793 113.821 30.9793 113.461C30.9793 112.301 31.5393 110.861 32.4393 110.861C32.8393 110.861 32.9793 111.201 32.9793 111.561C32.9593 112.741 32.3993 114.161 31.5193 114.161ZM32.2813 116.041C33.3813 116.381 34.0613 116.641 34.0613 117.401C34.0613 118.381 32.2613 119.541 30.0813 119.521C28.8213 119.521 27.7413 119.181 27.7413 118.361C27.7413 117.581 28.4613 116.941 30.2213 116.421C29.9813 116.261 29.8813 116.061 29.8813 115.781C29.8813 115.301 30.3213 114.921 31.0813 114.561C30.3413 114.461 29.8613 113.901 29.8613 113.081C29.8613 111.821 30.9013 110.381 32.5413 110.381C32.8813 110.381 33.1813 110.461 33.4213 110.621H35.2213L35.0213 111.301H33.9613C34.0213 111.481 34.0613 111.681 34.0613 111.901C34.0613 113.121 33.0813 114.521 31.5213 114.601C31.1213 114.821 30.9213 115.121 30.9213 115.361C30.9213 115.643 31.2485 115.739 31.9715 115.95C32.0677 115.978 32.1709 116.008 32.2813 116.041ZM25.94 112.621C26.72 112.621 26.74 112.961 26.62 113.821H27.06L28.1 110.981H27.66C27.28 111.661 26.96 112.181 26.12 112.181H24.4L25.24 109.841C25.54 109.001 25.68 108.841 26.76 108.841H27.52C28.62 108.841 28.74 109.141 28.74 110.301H29.18L29.54 108.361H23.02L22.9 108.721C24.16 108.981 24.28 109.101 23.7 110.721L22.4 114.221C21.8 115.841 21.56 115.961 20.1 116.221L20 116.601H27.24L28.54 114.541H28.04C27.2 115.361 26.36 116.121 24.72 116.121C22.9161 116.121 22.9482 116.033 23.4895 114.546C23.5243 114.45 23.5613 114.349 23.6 114.241L24.2 112.641H25.94V112.621Z" fill="black"/>
<path fill-rule="evenodd" clip-rule="evenodd" d="M31.9182 95.4809C32.3182 95.4809 32.6582 95.1409 32.6582 94.7409C32.6582 94.341 32.3182 94.001 31.9182 94.001C31.4982 94.001 31.1782 94.341 31.1782 94.7409C31.1782 95.1609 31.4982 95.4809 31.9182 95.4809ZM37.8403 98.0001C37.8403 97.0402 37.6003 96.6802 36.9203 96.6802C36.0803 96.6802 35.3003 97.5802 34.5203 98.6601L36.2003 94.1604L36.1003 94.0204L34.0403 94.2604V94.5004L34.4403 94.8004C34.7886 95.0712 34.6876 95.3421 34.391 96.138L34.3603 96.2203L32.5403 100.98C32.3803 101.38 32.2003 101.86 32.2003 101.98C32.2003 102.54 32.9603 103.08 33.6603 103.08C35.2203 103.1 37.8403 100.22 37.8403 98.0001ZM55.18 95.9603L57.04 94.2604V94.0204H55.8L54.7 95.9603H55.18ZM55.3005 100.82H55.7005C54.9405 102.24 54.0205 103.1 53.1405 103.08C52.3805 103.08 51.9005 102.54 51.9005 101.52C51.9005 99.3601 53.6605 96.6603 55.2005 96.6603C56.0805 96.6603 56.8605 97.3202 56.2205 98.8401L52.9605 99.92C52.9005 100.2 52.8605 100.52 52.8605 100.82C52.8605 101.56 53.1405 101.9 53.7005 101.9C54.2405 101.9 54.8005 101.42 55.3005 100.82ZM55.1986 98.6602C55.3985 97.9002 55.0186 97.5603 54.5786 97.5603C54.0986 97.5603 53.4986 98.2602 53.1786 99.2001L55.1986 98.6602ZM49.2964 97.6014H48.2164V97.1014L49.5564 96.9215L50.6764 95.2216H51.2964L50.6964 96.9215H52.2764L52.0764 97.6014H50.4564L48.8764 102.021C49.5964 101.901 50.5564 101.221 50.9964 100.601H51.2964C50.7364 102.081 49.2764 103.121 48.0564 103.121C47.6364 103.121 47.4164 102.721 47.5764 102.321L49.2964 97.6014ZM47.6602 98.1213C47.8802 97.3614 47.7602 96.6814 47.1802 96.6814C46.4569 96.6814 46.2304 97.1591 45.5295 98.6375L45.4802 98.7413V97.8613C45.4802 97.2414 45.2802 96.6814 44.7202 96.6814C44.0603 96.6814 43.4603 97.7014 43.0003 98.7213H43.3003C43.6203 98.2613 43.9203 97.9813 44.1403 97.9813C44.4203 97.9813 44.5803 98.4213 44.1403 99.3812L42.8603 102.221C42.6203 102.761 42.8803 103.101 43.4003 103.101C43.7203 103.101 43.8603 103.021 44.0003 102.681L45.2602 99.3612C45.6202 98.9213 45.9402 98.5413 46.3402 98.1213H47.6602ZM41.3208 98.6602C41.5208 97.9002 41.1408 97.5603 40.7008 97.5603C40.2208 97.5603 39.6408 98.2602 39.3008 99.2001L41.3208 98.6602ZM41.8195 100.82H41.4195C40.9195 101.42 40.3595 101.9 39.8195 101.9C39.2595 101.9 38.9796 101.56 38.9796 100.82C38.9796 100.52 39.0196 100.2 39.0795 99.92L42.3395 98.8401C42.9795 97.3202 42.2195 96.6603 41.3195 96.6603C39.7795 96.6603 38.0196 99.3601 38.0196 101.52C38.0196 102.54 38.4996 103.08 39.2595 103.08C40.1395 103.1 41.0595 102.24 41.8195 100.82ZM33.4211 101.581C33.4211 101.841 33.8811 102.141 34.2011 102.141C35.5011 102.141 36.7211 99.8007 36.7011 98.5008C36.7011 98.0609 36.4811 97.8809 36.1811 97.8809C35.7011 97.8809 34.8211 98.6008 34.2611 99.2808L33.7411 100.681C33.5611 101.141 33.4211 101.501 33.4211 101.581ZM31.3215 96.6814C31.5615 96.6814 31.8415 96.9214 31.7215 97.3614L29.8015 102.061C30.3015 101.981 30.8215 101.501 31.1215 101.061H31.4215C30.9615 102.241 29.9215 103.101 29.0215 103.101C28.7815 103.101 28.4615 102.861 28.6215 102.421L30.4215 97.7214C29.9215 97.8013 29.4015 98.2813 29.1015 98.7213H28.8015C29.2615 97.5414 30.3815 96.6814 31.3215 96.6814ZM23.02 94.6015H27.3199L27.1999 94.9815C25.7399 95.2415 25.4999 95.3615 24.8999 96.9813L23.6199 100.501C23 102.181 23.16 102.381 24.2599 102.381C25.619 102.381 26.5101 101.393 27.2882 100.531C27.346 100.467 27.4032 100.403 27.4599 100.341H27.9599L26.5399 102.861H20L20.12 102.501C21.56 102.241 21.8 102.121 22.4 100.501L23.6999 96.9613C24.2799 95.3415 24.1599 95.2215 22.9 94.9615L23.02 94.6015Z" fill="black"/>
</svg>